<svg height="421" viewBox="3.305 31.092 3227.68 461.158" width="2500" xmlns="http://www.w3.org/2000/svg"><path d="m107.055 491.964 13.75-.278v-105.302l-58.75-.24-58.75-.24 58.746-.217 58.747-.218.257-123.604c.222-106.648.291-99.362.504 53.112l.246 176.716 16.75.27c9.213.15 2.8.273-14.25.275-17.05.003-24.812-.12-17.25-.274zm137.557 0c6.77-.156 17.57-.155 24 .001 6.431.157.893.285-12.307.284-13.2 0-18.462-.129-11.693-.285zm422.505-.901c8.697-.15 22.647-.15 31 0 8.354.151 1.238.274-15.812.274s-23.884-.124-15.188-.274zm166.683-26.118-29.494-26.792 29.75 26.561c16.363 14.609 29.75 26.665 29.75 26.792 0 .636-2.597-1.663-30.006-26.561zm248.475-26.342c0-29.471.126-41.528.28-26.792s.155 38.848 0 53.584-.28 2.68-.28-26.792zm281.012-34.672c0-48.541.12-68.267.269-43.835s.148 64.148 0 88.257-.27 4.119-.27-44.422zm1048.831 87.132c8.697-.15 22.647-.15 31 0 8.354.151 1.238.274-15.812.274s-23.884-.124-15.188-.274zm-1945.07-26.576-29.247-26.35.255-176.955.255-176.956.248 176.958.247 176.957 29.244 26.348c16.084 14.491 29.018 26.347 28.743 26.347s-13.66-11.857-29.746-26.35zm1744.752-.443-29.494-26.792 29.75 26.561c16.363 14.61 29.75 26.666 29.75 26.793 0 .636-2.597-1.663-30.006-26.562zm912.48-35.347c0-34.425.124-48.508.276-31.295s.152 45.377 0 62.59-.277 3.13-.277-31.295zm-443.98-115.724v-175.613l79.742-.23 79.742-.23.27-52.904.27-52.904-.011 53.134-.012 53.134-79.748.23-79.747.231-.257 175.382-.256 175.382zm-1942.13 81.051c.002-4.953.17-6.864.372-4.247.203 2.617.2 6.67-.005 9.006s-.37.195-.368-4.759zm1744.83-6.304c.02-1.486.245-1.984.498-1.108.254.876.237 2.092-.037 2.702s-.481-.108-.46-1.594zm-2290.945-1.115c3.163-.18 8.338-.18 11.5 0s.575.325-5.75.325-8.912-.147-5.75-.325zm730.24-177.199c0-97.082.117-136.664.26-87.96.143 48.705.143 128.136 0 176.514s-.26 8.528-.26-88.554zm1977.994-68.443c0-60.43.12-85.017.266-54.64.146 30.376.146 79.817 0 109.87s-.266 5.198-.266-55.23zm-1537.003-18.913c0-48.54.12-68.266.269-43.834.148 24.432.148 64.147 0 88.256-.148 24.11-.27 4.12-.27-44.422zm-771.231 15.088c7.013-.155 18.488-.155 25.5 0s1.275.281-12.75.281-19.762-.127-12.75-.281zm1745 0c7.013-.155 18.488-.155 25.5 0s1.275.281-12.75.281-19.762-.127-12.75-.281zm806.072-.002c16.402-.14 42.952-.139 59 0s2.628.253-29.822.253-45.58-.114-29.178-.253zm-2404.957-96.137c.003-4.954.17-6.865.373-4.248s.2 6.67-.005 9.006-.37.195-.368-4.758zm1744.793-6.755c0-1.238.227-1.745.504-1.126s.278 1.633 0 2.252-.504.112-.504-1.126zm-2350.408-1.573c6.188-.158 16.313-.158 22.5 0s1.125.288-11.25.288-17.437-.13-11.25-.288zm387.5-.9c6.463-.157 17.038-.157 23.5 0 6.463.156 1.175.285-11.75.285s-18.212-.129-11.75-.285zm157.062-.002c8.697-.15 22.647-.15 31 0 8.354.151 1.238.274-15.812.274s-23.884-.124-15.188-.274zm1587.938.002c6.463-.157 17.038-.157 23.5 0 6.463.156 1.175.285-11.75.285s-18.212-.129-11.75-.285zm157.062-.002c8.697-.15 22.647-.15 31 0 8.354.151 1.238.274-15.812.274s-23.884-.124-15.188-.274z" fill="#6e6e6e"/><path d="m138.555 492.023-16.75-.33v-105.586l43.25.307c23.788.168 51.463.227 61.5.13l18.25-.174v-247.66h-124v246.76h-117v-353.123l150.25.597 150.25.597 29.25 26.237 29.25 26.238v353.049l-29.25 26.266-29.25 26.267-74.5.377c-40.975.207-82.037.229-91.25.048zm466.752-.961-107.999-.234-29.251-26.332-29.252-26.332v-353.949l28.75-25.795 28.75-25.795 52.36-.622c28.799-.342 83.136-.324 120.75.04l68.39.661v105.394l-74.394-.536c-40.916-.294-81.866-.297-91-.005l-16.606.53v71.77h129v106.268h-129v69.344h182v106.268l-12.25-.22c-6.737-.122-60.85-.327-120.248-.455zm229.242-26.123-29.744-26.797v-404.798h117v352.125h160v106.268h-217.512zm305.256-202.399v-229.196h118v176.513h106v-175.613h117v457.493h-117v-175.612h-106v175.612h-118zm421 .45v-228.745h117v457.492h-117zm789.502 228.072-107.999-.234-29.751-26.782-29.752-26.783v-352.148l29.25-26.245 29.25-26.245 52.36-.622c28.799-.342 83.136-.324 120.75.04l68.39.661v105.394l-74.394-.536c-40.916-.294-81.866-.297-91-.005l-16.606.53v71.77h129v106.268h-129v69.344h182v106.268l-12.25-.22c-6.737-.122-60.85-.327-120.248-.455zm-527.831-65.292-59.667-65.067v-326.459h117v288.231l23.952 26.092 23.952 26.092 6.862-7.428a14650.33 14650.33 0 0 0 24.048-26.162l17.186-18.733v-288.092h117l-.026 163.23-.026 163.23-59.715 65.066-59.716 65.066h-91.18zm1184.298 2.702-.032-62.365-52.952-57.637-52.952-57.637-.017-109.645-.017-109.646h117v180.985l23.618 25.722c12.99 14.147 23.973 25.602 24.407 25.457.434-.146 11.392-11.815 24.35-25.932l23.563-25.666.032-37.149.03-37.149h117v112.34l-53.5 58.358-53.5 58.357v123.971h-117zm-443.969-141.847v-202.41l29.256-26.336 29.257-26.337h218.487v105.358l-79.75.23-79.75.231-.252 175.838-.253 175.837h-116.995z" fill="#333"/><g fill="#ef4136"><path d="m3.832 386.11h117.976v105.712h-117.976z" stroke-width="5.462"/><rect height="1.055" ry=".004" stroke-width="5.144" width="117.82" x="3.824" y="385.458"/><path d="m3113.813 31.327h117.172v106.768h-117.172z" stroke-width="3.183"/></g></svg>